<svg width="362" height="157" viewBox="0 0 362 157" fill="none" xmlns="http://www.w3.org/2000/svg">
<path fill-rule="evenodd" clip-rule="evenodd" d="M58.8493 10C61.6107 10 63.8493 7.76142 63.8493 5C63.8493 2.23858 61.6107 0 58.8493 0C56.0879 0 53.8493 2.23858 53.8493 5C53.8493 5.74388 54.0118 6.44982 54.3031 7.08428L0.41457 33.0994L0.477981 33.2308L0 33.5279L76.4231 156.465L77.2724 155.937L1.32744 33.7692L54.8114 7.94934C55.721 9.19256 57.1909 10 58.8493 10Z" fill="url(#paint0_linear_225_73)"/>
<path fill-rule="evenodd" clip-rule="evenodd" d="M302.423 10C299.662 10 297.423 7.76142 297.423 5C297.423 2.23858 299.662 0 302.423 0C305.185 0 307.423 2.23858 307.423 5C307.423 5.74388 307.261 6.44982 306.969 7.08428L360.858 33.0994L360.794 33.2308L361.272 33.5279L284.849 156.465L284 155.937L359.945 33.7692L306.461 7.94934C305.551 9.19256 304.082 10 302.423 10Z" fill="url(#paint1_linear_225_73)"/>
<defs>
<linearGradient id="paint0_linear_225_73" x1="0" y1="0" x2="84.6643" y2="4.10768" gradientUnits="userSpaceOnUse">
<stop stop-color="#29F19B"/>
<stop offset="1" stop-color="#00A8E8"/>
</linearGradient>
<linearGradient id="paint1_linear_225_73" x1="361.272" y1="0" x2="276.608" y2="4.10768" gradientUnits="userSpaceOnUse">
<stop stop-color="#29F19B"/>
<stop offset="1" stop-color="#00A8E8"/>
</linearGradient>
</defs>
</svg>
