<svg xmlns="http://www.w3.org/2000/svg" width="362" height="157" fill="none" viewBox="0 0 362 157"><path fill="#393939" fill-rule="evenodd" d="M59.1218 10C61.8832 10 64.1218 7.76142 64.1218 5C64.1218 2.23858 61.8832 0 59.1218 0C56.3604 0 54.1218 2.23858 54.1218 5C54.1218 5.74388 54.2842 6.44982 54.5756 7.08428L0.687031 33.0994L0.750442 33.2308L0.272461 33.5279L76.6955 156.465L77.5448 155.937L1.5999 33.7692L55.0839 7.94934C55.9935 9.19256 57.4633 10 59.1218 10Z" clip-rule="evenodd"/><path fill="#393939" fill-rule="evenodd" d="M302.696 10C299.934 10 297.696 7.76142 297.696 5C297.696 2.23858 299.934 0 302.696 0C305.457 0 307.696 2.23858 307.696 5C307.696 5.74388 307.533 6.44982 307.242 7.08428L361.13 33.0994L361.067 33.2308L361.545 33.5279L285.122 156.465L284.273 155.937L360.217 33.7692L306.734 7.94934C305.824 9.19256 304.354 10 302.696 10Z" clip-rule="evenodd"/></svg>