<svg xmlns="http://www.w3.org/2000/svg" width="24" height="24" fill="none" viewBox="0 0 24 24"><path stroke="#29F19B" stroke-linecap="round" stroke-linejoin="round" stroke-width="1.5" d="M19 9C19 10.45 18.57 11.78 17.83 12.89C17.2877 13.6987 16.5824 14.3852 15.7592 14.9053C14.936 15.4254 14.0132 15.7676 13.05 15.91C12.71 15.97 12.36 16 12 16C11.64 16 11.29 15.97 10.95 15.91C9.98675 15.7676 9.06393 15.4254 8.24075 14.9053C7.41758 14.3852 6.71223 13.6987 6.16998 12.89C5.40229 11.7383 4.99498 10.3841 4.99998 9C4.99998 5.13 8.12998 2 12 2C15.87 2 19 5.13 19 9Z"/><path stroke="#00A8E8" stroke-linecap="round" stroke-linejoin="round" stroke-width="1.5" d="M21.25 18.468L19.6 18.858C19.23 18.948 18.94 19.228 18.86 19.598L18.51 21.068C18.4671 21.2484 18.3748 21.4134 18.2435 21.5444C18.1122 21.6754 17.9471 21.7673 17.7665 21.8099C17.586 21.8524 17.3972 21.8439 17.2212 21.7853C17.0452 21.7267 16.889 21.6203 16.77 21.478L12 15.998L7.23001 21.488C7.11103 21.6303 6.95481 21.7367 6.77883 21.7953C6.60285 21.8539 6.41404 21.8624 6.2335 21.8199C6.05296 21.7773 5.88781 21.6854 5.75651 21.5544C5.62521 21.4234 5.53294 21.2584 5.49001 21.078L5.14001 19.608C5.09747 19.4281 5.00572 19.2637 4.87503 19.133C4.74434 19.0023 4.57987 18.9105 4.40001 18.868L2.75001 18.478C2.57713 18.4366 2.41838 18.3499 2.29 18.227C2.16162 18.104 2.06823 17.9491 2.0194 17.7782C1.97056 17.6072 1.96803 17.4264 2.01206 17.2542C2.0561 17.0819 2.14512 16.9245 2.27001 16.798L6.17001 12.898C6.7123 13.7067 7.41766 14.3931 8.24083 14.9132C9.064 15.4333 9.98679 15.7755 10.95 15.918C11.29 15.978 11.64 16.008 12 16.008C12.36 16.008 12.71 15.978 13.05 15.918C15.04 15.628 16.75 14.498 17.83 12.898L21.73 16.798C22.28 17.338 22.01 18.288 21.25 18.468V18.468ZM12.58 5.98L13.17 7.16C13.25 7.32 13.46 7.48 13.65 7.51L14.72 7.69C15.4 7.8 15.56 8.3 15.07 8.79L14.24 9.62C14.1 9.76 14.02 10.03 14.07 10.23L14.31 11.26C14.5 12.07 14.07 12.39 13.35 11.96L12.35 11.37C12.2485 11.3158 12.1351 11.2875 12.02 11.2875C11.9049 11.2875 11.7916 11.3158 11.69 11.37L10.69 11.96C9.97001 12.38 9.54001 12.07 9.73001 11.26L9.97001 10.23C10.01 10.04 9.94001 9.76 9.80001 9.62L8.97001 8.79C8.48001 8.3 8.64001 7.81 9.32001 7.69L10.39 7.51C10.57 7.48 10.78 7.32 10.86 7.16L11.45 5.98C11.74 5.34 12.26 5.34 12.58 5.98V5.98Z"/></svg>