<svg xmlns="http://www.w3.org/2000/svg" width="24" height="24" fill="none" viewBox="0 0 24 24"><path stroke="#29F19B" stroke-linecap="round" stroke-linejoin="round" stroke-width="1.5" d="M9.5 13.748C9.5 14.718 10.25 15.498 11.17 15.498H13.05C13.85 15.498 14.5 14.818 14.5 13.968C14.5 13.058 14.1 12.728 13.51 12.518L10.5 11.468C9.91 11.258 9.51 10.938 9.51 10.018C9.51 9.178 10.16 8.488 10.96 8.488H12.84C13.76 8.488 14.51 9.268 14.51 10.238M12 7.5V16.5"/><path stroke="#00A8E8" stroke-linecap="round" stroke-linejoin="round" stroke-width="1.5" d="M22 12C22 17.52 17.52 22 12 22C6.48 22 2 17.52 2 12C2 6.48 6.48 2 12 2"/><path stroke="#00A8E8" stroke-linecap="round" stroke-linejoin="round" stroke-width="1.5" d="M17 3V7H21M22 2L17 7"/></svg>